<?xml version="1.0" encoding="utf-8"?>
<!-- Generator: Adobe Illustrator 21.0.0, SVG Export Plug-In . SVG Version: 6.00 Build 0)  -->
<svg version="1.1" id="Layer_1" xmlns="http://www.w3.org/2000/svg" xmlns:xlink="http://www.w3.org/1999/xlink" x="0px" y="0px"
	 viewBox="0 0 152.8 33.1" style="enable-background:new 0 0 152.8 33.1;" xml:space="preserve">
<style type="text/css">
	.st0{fill:#237856;}
	.st1{fill:#0078B9;}
	.st2{fill:#AB71A9;}
	.st3{fill:url(#SVGID_1_);}
	.st4{fill:#62BCE6;}
	.st5{fill:#1D3E90;}
	.st6{fill:url(#SVGID_2_);}
	.st7{fill:#FFFFFF;}
	.st8{fill:url(#SVGID_3_);}
	.st9{fill:#18403C;}
	.st10{fill:#3FAF82;}
	.st11{fill:url(#SVGID_4_);}
	.st12{fill:url(#SVGID_5_);}
	.st13{fill:url(#SVGID_6_);}
	.st14{fill:url(#SVGID_7_);}
	.st15{fill:url(#SVGID_8_);}
	.st16{fill:#37264D;}
	.st17{fill:url(#SVGID_9_);}
	.st18{fill:#AB72A9;}
	.st19{fill:url(#SVGID_10_);}
	.st20{fill:#ED7D27;}
	.st21{fill:#DE501E;}
	.st22{fill:#B41B1F;}
	.st23{fill:url(#SVGID_11_);}
	.st24{fill:#F9B638;}
	.st25{fill:#F5E84B;}
	.st26{fill:#E30049;}
	.st27{fill:url(#SVGID_12_);}
	.st28{fill:url(#SVGID_13_);}
	.st29{fill:url(#SVGID_14_);}
	.st30{fill:url(#SVGID_15_);}
	.st31{fill:url(#SVGID_16_);}
	.st32{fill:url(#SVGID_17_);}
	.st33{opacity:0.41;fill:url(#SVGID_18_);}
	.st34{fill:url(#SVGID_19_);}
	.st35{fill:url(#SVGID_20_);}
	.st36{fill:url(#SVGID_21_);}
	.st37{fill:url(#SVGID_22_);}
	.st38{fill:url(#SVGID_23_);}
	.st39{fill:url(#SVGID_24_);}
	.st40{fill:url(#SVGID_25_);}
	.st41{fill:url(#SVGID_26_);}
	.st42{fill:url(#SVGID_27_);}
	.st43{fill:url(#SVGID_28_);}
	.st44{fill:url(#SVGID_29_);}
	.st45{fill:url(#SVGID_30_);}
	.st46{fill:url(#SVGID_31_);}
	.st47{fill:url(#SVGID_32_);}
	.st48{fill:url(#SVGID_33_);}
	.st49{fill:url(#SVGID_34_);}
	.st50{fill:url(#SVGID_35_);}
	.st51{opacity:0.41;fill:url(#SVGID_36_);}
</style>
<g>
	<g>
		<polygon class="st0" points="147.1,7.5 136.7,25.3 137.1,25.6 147.5,7.7 		"/>
		<polygon class="st0" points="152.4,7.5 142.1,25.3 142.5,25.6 152.8,7.7 		"/>
		<polygon class="st0" points="76.3,7.5 71.9,15.2 61.3,15.2 65.6,7.7 65.3,7.5 54.9,25.3 55.3,25.6 61,15.7 71.6,15.7 66,25.3 
			66.4,25.6 76.7,7.7 		"/>
		<path class="st0" d="M75.6,25.6c-1.2,0-2-0.3-2.4-1c-0.6-1.1-0.2-3,1.1-5.2c0.2-0.3,0.4-0.6,0.6-0.9h10.7v-0.2l0.2,0.1
			c1-2.1,1.2-3.7,0.5-4.7c-0.5-0.8-1.5-1.2-3-1.2c-3.8,0-7.5,3.5-9.4,6.7c-1.4,2.4-1.8,4.4-1.1,5.7c0.5,0.8,1.4,1.3,2.8,1.3
			c3,0,5.7-1.4,8.2-4.4l-0.3-0.3C81,24.2,78.5,25.6,75.6,25.6z M83.3,12.9c1.3,0,2.2,0.3,2.6,1c0.5,0.8,0.4,2.3-0.5,4.1H75.2
			C77.1,15.4,80.2,12.9,83.3,12.9z"/>
		<polygon class="st0" points="95.9,7.7 95.6,7.5 94.5,9.3 94.9,9.6 		"/>
		<polygon class="st0" points="92.5,12.9 85.3,25.3 85.7,25.6 92.9,13.2 		"/>
		<path class="st0" d="M112.6,13.5c-0.4-0.7-1.2-1-2.5-1c-2,0-4.1,1.4-5.4,2.4c0-0.6-0.1-1.1-0.4-1.5c-0.5-0.6-1.2-0.9-2.3-0.9
			c-1.4,0-2.9,0.6-4.4,1.6c0.1-0.2,0.2-0.3,0.2-0.5l0.2-0.5l-0.4-0.2l-0.2,0.5c-0.4,0.7-0.8,1.5-1.3,2.3l-5.6,9.6l0.4,0.2l5.6-9.6
			c0.2-0.3,0.3-0.6,0.5-0.9c1.6-1.4,3.3-2.2,4.9-2.2c0.9,0,1.6,0.2,1.9,0.7c0.3,0.4,0.4,1,0.2,1.7l-5.8,10l0.4,0.2l5.8-10
			c1.2-1,3.5-2.6,5.6-2.6c1.1,0,1.8,0.3,2.1,0.8c0.4,0.8,0.1,2.1-0.9,3.9l-4.5,7.8l0.4,0.2l4.5-7.8
			C112.5,16.5,113.3,14.6,112.6,13.5z"/>
		<path class="st0" d="M129.8,7.5l-3.9,6.7c-0.3-1.1-1.4-1.8-3-1.8c-3.8,0-7.1,3.4-8.9,6.6c-0.7,1.2-2.2,4.1-1.2,5.8
			c0.4,0.8,1.3,1.1,2.5,1.1c1.5,0,3.2-0.6,4.8-1.7c-0.1,0.2-0.2,0.4-0.3,0.6l-0.2,0.5l0.4,0.2l0.2-0.5c0.4-0.7,0.8-1.5,1.2-2.3
			l8.7-15.1L129.8,7.5z M121.1,22.5c-0.2,0.3-0.3,0.6-0.5,0.8c-1.8,1.4-3.7,2.2-5.3,2.2c-1,0-1.8-0.3-2.1-0.9
			c-0.6-1.1-0.2-3.1,1.2-5.4c1.8-3.1,5-6.4,8.6-6.4c1.2,0,2.6,0.5,2.6,1.9L121.1,22.5z"/>
		<path class="st0" d="M138.6,13.3c-0.3-0.6-1.1-0.8-2.3-0.8c-1.9,0-4.6,0.6-6.8,3.6l0.4,0.3c2-2.8,4.6-3.4,6.4-3.4
			c1.1,0,1.7,0.2,1.9,0.6c0.3,0.5,0,1.6-0.9,3.2l-0.6,1c-0.5,0-1,0-1.5,0c-1.6,0-3.5,0-5,0.6c-2,0.7-3.7,2-4.6,3.7
			c-0.9,1.6-0.7,2.6-0.4,3.1c0.4,0.7,1.3,1.1,2.4,1.1c1.5,0,3.9-0.8,5.2-1.6c-0.1,0.1-0.1,0.2-0.2,0.3c-0.1,0.2-0.2,0.4-0.3,0.6
			l0.4,0.2c0.1-0.2,0.2-0.4,0.3-0.6c0.3-0.7,0.7-1.4,1.2-2.1l3.4-5.9C138.7,15.1,139,14,138.6,13.3z M133.8,22.5
			c-0.2,0.3-0.4,0.6-0.5,0.9l0,0l-0.2,0.2c-1,1-3.9,2-5.5,2c-1,0-1.7-0.3-2.1-0.8c-0.4-0.6-0.2-1.5,0.4-2.6c0.9-1.5,2.5-2.9,4.4-3.5
			c1.5-0.5,3.3-0.5,4.8-0.5c0.4,0,0.8,0,1.2,0L133.8,22.5z"/>
	</g>
	<g>
		<path class="st0" d="M24.2,27.8c0.7,1.1,0.9,3.9-2.8,3.3c-3.7-0.6-8.8-1.8-8.8-1.8s2.7-7.8,1.3-14.5c-1.2-6-3.4-6.3-2.8-8
			c0.6-2,4.2-1,4.5-4.1l-1.7-0.3c-0.7-0.8-1.7-1.9-3.5-2.3C7.5-0.4,3.3,1,5.7,8.9C4.2,11,2.2,13.8,5,18.7c0,0-0.5,3.4-0.5,4.2
			c-2.5-0.6-5.9,2.6-0.9,8.3c0,0-3.5,0.3-3.5,1.9c0,0,18,0,20.8,0C28.1,33.1,26.5,28.8,24.2,27.8z"/>
		<path class="st7" d="M11.8,1.3c0.5,0.3,0.8,0.7,1.1,1.4c0,0-1.3,0.4-1.7,0.1C10.8,2.5,11,1.8,11.8,1.3z"/>
		<path class="st9" d="M8.5,5.6c-0.8-0.5-0.9-3,0.6-3.5C9.1,2.2,9.3,5.2,8.5,5.6z"/>
		<path class="st10" d="M24.2,27.8c0.7,1.1,0.9,3.9-2.8,3.3c-3.7-0.6-8.8-1.8-8.8-1.8s2.7-7.8,1.3-14.5c-0.6-2.9-1.4-4.5-2-5.5
			c0-0.1-0.1-0.1-0.1-0.2c-0.1-0.1-0.1-0.2-0.2-0.3c-1.3-2.1-2.4-2-3.3-3.4c0,0,0,0,0-0.1c0,0,0,0,0-0.1l0,0
			C7.8,4.6,7.8,3.3,8.5,2.6L8.2,0.1C5.9,0.6,3.9,2.8,5.7,8.9c2,6,8.1,5.9,3.4,24.2c4.9,0,10.3,0,11.7,0
			C28.1,33.1,26.5,28.8,24.2,27.8z"/>
		<g>
			<linearGradient id="SVGID_1_" gradientUnits="userSpaceOnUse" x1="12.8874" y1="7.5387" x2="10.9396" y2="0.6567">
				<stop  offset="0" style="stop-color:#237856"/>
				<stop  offset="1" style="stop-color:#3FAF82"/>
			</linearGradient>
			<path class="st3" d="M8.5,2.6L8.5,2.6c0.2-0.2,0.4-0.3,0.6-0.4c0,0,0.2,3.1-0.6,3.5C8.4,5.6,8.3,5.5,8.3,5.4v0
				c0.9,1.4,2,1.3,3.3,3.4c-0.5-0.8-0.8-1.3-0.6-2c0.6-2,4.2-1,4.5-4.1l-1.7-0.3c-0.7-0.8-1.7-1.9-3.5-2.3C9.6,0,8.9,0,8.2,0.1
				L8.5,2.6z M11.8,1.3c0.5,0.3,0.8,0.7,1.1,1.4c0,0-1.3,0.4-1.7,0.1C10.8,2.5,11,1.8,11.8,1.3z"/>
			<path class="st10" d="M27.4,6.6C27.4,6.6,27.4,6.6,27.4,6.6L27.4,6.6L27.4,6.6C27.4,6.6,27.4,6.6,27.4,6.6z"/>
		</g>
		<g>
			<linearGradient id="SVGID_2_" gradientUnits="userSpaceOnUse" x1="3.8313" y1="16.1999" x2="4.9999" y2="9.6425">
				<stop  offset="0" style="stop-color:#222D3D"/>
				<stop  offset="1" style="stop-color:#237856"/>
			</linearGradient>
			<path class="st6" d="M5.4,7.6C5.4,7.6,5.4,7.6,5.4,7.6C5.4,7.6,5.4,7.6,5.4,7.6z"/>
			<linearGradient id="SVGID_3_" gradientUnits="userSpaceOnUse" x1="5.8314" y1="24.9313" x2="4.7277" y2="10.7778">
				<stop  offset="0" style="stop-color:#222D3D"/>
				<stop  offset="1" style="stop-color:#237856"/>
			</linearGradient>
			<path class="st8" d="M5.7,8.9C4.2,11,2.2,13.8,5,18.7l1.1-8.9l0,0C5.9,9.5,5.8,9.2,5.7,8.9z"/>
			<linearGradient id="SVGID_4_" gradientUnits="userSpaceOnUse" x1="4.0815" y1="16.2445" x2="5.2502" y2="9.6871">
				<stop  offset="0" style="stop-color:#222D3D"/>
				<stop  offset="1" style="stop-color:#237856"/>
			</linearGradient>
			<path class="st11" d="M5.5,8.2C5.5,8.2,5.5,8.2,5.5,8.2C5.5,8.2,5.5,8.2,5.5,8.2z"/>
		</g>
	</g>
</g>
</svg>
